#N canvas 457 233 672 673 10;
#X text 18 7 This patch receives osc signals and stores the (resampled)
data as csv files for repovizz;
#X obj 25 80 mrpeach/unpackOSC;
#N canvas 599 285 630 361 testsend 0;
#X obj 59 168 mrpeach/udpsend;
#X obj 59 137 mrpeach/packOSC;
#X msg 176 132 connect localhost 5555;
#X msg 61 82 /myo/pose mac first;
#X obj 516 173 random 100;
#X msg 508 145 bang;
#X obj 506 76 tgl 15 0 empty empty empty 17 7 0 10 -262144 -1 -1 0
1;
#X floatatom 468 211 5 0 0 0 - - -;
#X obj 515 206 / 10;
#X msg 465 250 \$1 \$1 \$1;
#X msg 215 81 /myo/accel mac \$1 \$2 \$3;
#X obj 501 102 metro 10;
#X connect 1 0 0 0;
#X connect 2 0 0 0;
#X connect 3 0 1 0;
#X connect 4 0 8 0;
#X connect 5 0 4 0;
#X connect 6 0 11 0;
#X connect 7 0 9 0;
#X connect 8 0 7 0;
#X connect 9 0 10 0;
#X connect 10 0 1 0;
#X connect 11 0 5 0;
#X restore 495 31 pd testsend;
#X obj 180 60 tgl 30 0 empty empty empty 17 7 0 10 -258113 -1 -1 0
1;
#X obj 175 124 s recording;
#X obj 25 103 s OSC_in;
#X obj 272 103 metro 100;
#X obj 272 124 s record_tick;
#X floatatom 323 73 5 0 0 0 - - -;
#X text 363 74 Resampling rate;
#N canvas 64 325 450 300 syncsignal 0;
#X obj 41 145 *~ 0;
#X obj 40 167 dac~;
#X obj 105 94 bng 15 250 50 0 empty empty empty 17 7 0 10 -262144 -1
-1;
#X msg 105 149 1;
#X msg 140 150 0;
#X obj 109 123 del 100;
#X obj 41 118 osc~ 880;
#X obj 68 36 r recording;
#X msg 261 82 \; pd dsp 1;
#X obj 263 52 loadbang;
#X connect 0 0 1 0;
#X connect 0 0 1 1;
#X connect 2 0 3 0;
#X connect 2 0 5 0;
#X connect 3 0 0 1;
#X connect 4 0 0 1;
#X connect 5 0 4 0;
#X connect 6 0 0 0;
#X connect 7 0 2 0;
#X connect 9 0 8 0;
#X restore 495 54 pd syncsignal;
#X obj 366 123 s srate;
#X obj 315 30 loadbang;
#X obj 483 202 + 1;
#X obj 452 204 f;
#X floatatom 453 227 5 0 0 0 - - -;
#X obj 455 247 s setnum;
#X obj 448 175 sel 1;
#X obj 25 56 mrpeach/udpreceive 7777;
#X msg 316 50 5;
#X obj 54 166 print;
#X obj 31 224 filestore2 ECG;
#X msg 495 178 0;
#X obj 213 351 logger;
#X connect 1 0 5 0;
#X connect 1 0 20 0;
#X connect 3 0 4 0;
#X connect 3 0 6 0;
#X connect 3 0 17 0;
#X connect 6 0 7 0;
#X connect 8 0 6 1;
#X connect 8 0 11 0;
#X connect 12 0 19 0;
#X connect 13 0 14 1;
#X connect 14 0 13 0;
#X connect 14 0 15 0;
#X connect 15 0 16 0;
#X connect 17 0 14 0;
#X connect 18 0 1 0;
#X connect 19 0 8 0;
#X connect 21 0 23 0;
#X connect 22 0 14 1;
