#N canvas 546 87 672 673 10;
#X declare -lib mrpeach;
#X obj 495 31 import mrpeach;
#X text 18 7 This patch receives osc signals from mindwave;
#X obj 25 56 udpreceive 5555;
#X obj 25 80 unpackOSC;
#X obj 33 115 routeOSC /BrainWave;
#X obj 33 147 routeOSC /Raw /Delta /Theta /Alpha1 /Alpha2 /Beta1 /Beta2
/Gamma1 /Gamma2 /Attention /Meditation;
#X floatatom 33 200 5 0 0 0 - - -;
#X floatatom 80 200 5 0 0 0 - - -;
#X floatatom 128 203 5 0 0 0 - - -;
#X floatatom 172 203 5 0 0 0 - - -;
#X floatatom 219 203 5 0 0 0 - - -;
#X floatatom 267 206 5 0 0 0 - - -;
#X floatatom 34 277 5 0 0 0 - - -;
#X floatatom 81 277 5 0 0 0 - - -;
#X floatatom 129 280 5 0 0 0 - - -;
#X floatatom 173 280 5 0 0 0 - - -;
#X floatatom 308 205 5 0 0 0 - - -;
#X connect 2 0 3 0;
#X connect 3 0 4 0;
#X connect 4 0 5 0;
#X connect 5 0 6 0;
#X connect 5 1 7 0;
#X connect 5 2 8 0;
#X connect 5 3 9 0;
#X connect 5 4 10 0;
#X connect 5 5 11 0;
#X connect 5 6 16 0;
#X connect 5 7 12 0;
#X connect 5 8 13 0;
#X connect 5 9 14 0;
#X connect 5 10 15 0;
