#N canvas 300 178 913 520 10;
#X declare -lib moocow -lib mrpeach;
#X obj 138 159 t b b;
#X obj 133 199 symbol \$1;
#X obj 132 221 symbol2list /;
#X obj 132 244 list2symbol _;
#X msg 56 296 clear;
#X obj 303 157 r OSC_in;
#X obj 56 78 r recording;
#X obj 56 106 sel 1 0;
#X obj 327 322 list append 44 32;
#X obj 489 267 list-map;
#X obj 55 162 t b b;
#X obj 489 312 list append 44 10;
#X obj 485 181 f;
#X obj 501 111 r srate;
#X msg 501 138 1000 \$1;
#X obj 500 159 /;
#X msg 489 213 repoVizz category=categorytest name=nametest offsettime=0
framerate=\$1 minval=-5000 maxval=5000;
#X obj 171 267 pack s f f;
#X obj 240 143 r setnum;
#X obj 559 266 sel 32;
#X msg 559 289 44;
#X obj 320 243 list-drip;
#X msg 133 291 write \$3_\$1.csv;
#X obj 372 450 outlet;
#X obj 489 247 any2bytes 128 -1;
#X obj 325 297 any2bytes 128 -1;
#X obj 678 56 import moocow mrpeach;
#X obj 188 440 binfile;
#X obj 303 183 routeOSC /\$1;
#X connect 0 0 1 0;
#X connect 1 0 2 0;
#X connect 2 0 3 0;
#X connect 3 0 17 0;
#X connect 4 0 27 0;
#X connect 5 0 28 0;
#X connect 6 0 7 0;
#X connect 7 0 10 0;
#X connect 7 1 0 0;
#X connect 8 0 27 0;
#X connect 9 0 11 0;
#X connect 9 1 19 0;
#X connect 10 0 12 0;
#X connect 10 1 4 0;
#X connect 11 0 27 0;
#X connect 12 0 16 0;
#X connect 13 0 14 0;
#X connect 14 0 15 0;
#X connect 15 0 12 1;
#X connect 16 0 24 0;
#X connect 17 0 22 0;
#X connect 18 0 17 2;
#X connect 19 0 20 0;
#X connect 19 1 9 1;
#X connect 20 0 9 1;
#X connect 21 0 23 0;
#X connect 21 0 25 0;
#X connect 22 0 27 0;
#X connect 24 0 9 0;
#X connect 25 0 8 0;
#X connect 28 0 21 0;
