#N canvas 586 209 745 520 10;
#X obj 303 210 list split \$2;
#X obj 138 159 t b b;
#X obj 133 199 symbol \$1;
#X obj 173 267 pack s f;
#X obj 230 199 \$2;
#X obj 132 221 symbol2list /;
#X obj 132 244 list2symbol _;
#X msg 56 296 clear;
#X obj 303 157 r OSC_in;
#X obj 56 78 r recording;
#X obj 56 106 sel 1 0;
#X obj 303 183 mrpeach/routeOSC /\$1;
#X obj 327 269 f;
#X obj 280 240 r record_tick;
#X msg 380 239 \$1;
#X msg 133 291 write \$1[\$2].csv;
#X obj 188 440 mrpeach/binfile;
#X obj 327 297 any2bytes 128 -1;
#X obj 327 322 list append 44 32;
#X obj 489 267 list-map;
#X obj 559 266 sel 44;
#X msg 559 289 32;
#X obj 55 162 t b b;
#X obj 489 247 any2bytes 128 -1;
#X obj 489 312 list append 44 10;
#X msg 489 213 repoVizz category=categorytest name=nametest offsettime=0
framerate=29 minval=-5000 maxval=5000;
#X connect 0 1 14 0;
#X connect 1 0 2 0;
#X connect 1 1 4 0;
#X connect 2 0 5 0;
#X connect 3 0 15 0;
#X connect 4 0 3 1;
#X connect 5 0 6 0;
#X connect 6 0 3 0;
#X connect 7 0 16 0;
#X connect 8 0 11 0;
#X connect 9 0 10 0;
#X connect 10 0 22 0;
#X connect 10 1 1 0;
#X connect 11 0 0 0;
#X connect 12 0 17 0;
#X connect 13 0 12 0;
#X connect 14 0 12 1;
#X connect 15 0 16 0;
#X connect 17 0 18 0;
#X connect 18 0 16 0;
#X connect 19 0 24 0;
#X connect 19 1 20 0;
#X connect 20 0 21 0;
#X connect 21 0 19 1;
#X connect 22 0 25 0;
#X connect 22 1 7 0;
#X connect 23 0 19 0;
#X connect 24 0 16 0;
#X connect 25 0 23 0;
