#N canvas 782 334 450 300 10;
#N canvas 0 0 450 300 (subpatch) 0;
#X array array1 10000 float 2;
#X coords 0 1 9999 -1 200 140 1;
#X restore 216 36 graph;
#X obj 47 242 tabwrite array1;
#X obj 48 165 list-drip;
#X obj 50 203 t f b;
#X obj 106 211 f;
#X obj 136 211 + 1;
#X obj 163 210 % 10000;
#X connect 2 0 3 0;
#X connect 3 0 1 0;
#X connect 3 1 4 0;
#X connect 4 0 1 1;
#X connect 4 0 5 0;
#X connect 5 0 6 0;
#X connect 6 0 4 1;
