#N canvas 550 89 391 483 10;
#X declare -lib mrpeach;
#X obj 292 11 import mrpeach;
#X obj 25 56 udpreceive 7777;
#X obj 25 80 unpackOSC;
#X obj 23 111 routeOSC /myo;
#X obj 23 142 routeOSC /accel /orientation /gyro /emg;
#X text 18 7 This patch receives osc signals from myo;
#X obj 23 218 unpack a f f f;
#X obj 21 322 unpack a f f f f f f f;
#X obj 177 212 unpack a f f f;
#X obj 221 318 unpack a f f f f f f f f;
#X floatatom 26 255 5 0 0 0 - - -;
#X floatatom 64 257 5 0 0 0 - - -;
#X floatatom 102 257 5 0 0 0 - - -;
#X floatatom 45 361 5 0 0 0 - - -;
#X floatatom 83 361 5 0 0 0 - - -;
#X floatatom 118 361 5 0 0 0 - - -;
#X floatatom 157 362 5 0 0 0 - - -;
#X floatatom 90 391 5 0 0 0 - - -;
#X floatatom 127 390 5 0 0 0 - - -;
#X floatatom 45 392 5 0 0 0 - - -;
#X floatatom 174 253 5 0 0 0 - - -;
#X floatatom 212 255 5 0 0 0 - - -;
#X floatatom 250 255 5 0 0 0 - - -;
#X floatatom 230 364 5 0 0 0 - - -;
#X floatatom 268 364 5 0 0 0 - - -;
#X floatatom 303 364 5 0 0 0 - - -;
#X floatatom 342 365 5 0 0 0 - - -;
#X floatatom 232 391 5 0 0 0 - - -;
#X floatatom 270 391 5 0 0 0 - - -;
#X floatatom 305 391 5 0 0 0 - - -;
#X floatatom 344 392 5 0 0 0 - - -;
#X text 32 281 acceleration;
#X text 194 280 gyro;
#X text 58 420 orientation;
#X text 272 425 EMG;
#X connect 1 0 2 0;
#X connect 2 0 3 0;
#X connect 3 0 4 0;
#X connect 4 0 6 0;
#X connect 4 1 7 0;
#X connect 4 2 8 0;
#X connect 4 3 9 0;
#X connect 6 1 10 0;
#X connect 6 2 11 0;
#X connect 6 3 12 0;
#X connect 7 1 13 0;
#X connect 7 2 14 0;
#X connect 7 3 15 0;
#X connect 7 4 16 0;
#X connect 7 5 19 0;
#X connect 7 6 17 0;
#X connect 7 7 18 0;
#X connect 8 1 20 0;
#X connect 8 2 21 0;
#X connect 8 3 22 0;
#X connect 9 1 23 0;
#X connect 9 2 24 0;
#X connect 9 3 25 0;
#X connect 9 4 26 0;
#X connect 9 5 27 0;
#X connect 9 6 28 0;
#X connect 9 7 29 0;
#X connect 9 8 30 0;
