#N canvas 927 259 117 185 10;
#X obj 13 124 outlet;
#X obj 13 -14 inlet;
#X obj 13 67 pack s s;
#X msg 13 96 read \$1/\$2.csv;
#X obj 13 38 getdir 1;
#X obj 13 11 t b s;
#X connect 1 0 5 0;
#X connect 2 0 3 0;
#X connect 3 0 0 0;
#X connect 4 0 2 0;
#X connect 5 0 4 0;
#X connect 5 1 2 1;
