#N canvas 578 572 991 452 10;
#X declare -lib mrpeach -lib moocow;
#X obj 76 123 binfile;
#N canvas 830 763 450 300 firstline 0;
#X obj 198 202 until;
#X obj 239 88 sel 10;
#X msg 249 129 stop;
#X msg 226 179 bang;
#X obj 270 23 inlet END;
#X obj 105 25 inlet IN;
#X obj 209 245 outlet NEXT;
#X obj 164 59 route bang;
#X connect 0 0 6 0;
#X connect 1 0 2 0;
#X connect 2 0 3 0;
#X connect 3 0 0 1;
#X connect 4 0 2 0;
#X connect 5 0 7 0;
#X connect 7 0 0 0;
#X connect 7 1 1 0;
#X restore 35 257 pd firstline;
#X obj 125 229 bng 15 250 50 0 empty empty empty 17 7 0 10 -262144
-1 -1;
#N canvas 909 580 405 284 nextvalue 0;
#X obj 122 196 until;
#X msg 173 123 stop;
#X msg 150 173 bang;
#X obj 194 17 inlet END;
#X obj 29 19 inlet IN;
#X obj 133 239 outlet NEXT;
#X obj 88 53 route bang;
#X obj 219 240 outlet VALS;
#X obj 342 168 list;
#X obj 261 168 list prepend;
#X msg 342 141 bang;
#X obj 284 194 list;
#X msg 213 176 bang;
#X obj 262 104 t b b;
#X obj 163 82 sel 44 10;
#X connect 0 0 5 0;
#X connect 1 0 2 0;
#X connect 1 0 13 0;
#X connect 2 0 0 1;
#X connect 3 0 1 0;
#X connect 4 0 6 0;
#X connect 6 0 0 0;
#X connect 6 1 14 0;
#X connect 8 0 9 1;
#X connect 9 0 8 0;
#X connect 9 0 11 1;
#X connect 10 0 8 0;
#X connect 11 0 7 0;
#X connect 12 0 11 0;
#X connect 13 0 12 0;
#X connect 13 1 10 0;
#X connect 14 0 1 0;
#X connect 14 1 1 0;
#X connect 14 2 9 0;
#X restore 125 257 pd nextvalue;
#X obj 214 344 spigot;
#X obj 249 100 t b b b b;
#X obj 250 23 bng 15 250 50 0 empty empty empty 17 7 0 10 -262144 -1
-1;
#X msg 246 322 0;
#X msg 277 322 1;
#X obj 310 19 import mrpeach moocow;
#X obj 211 369 wchars2any 128 -1;
#X obj 175 209 metro;
#X obj 43 16 inlet;
#X obj 132 18 inlet GO;
#X obj 154 141 t b b f;
#X obj 182 395 outlet;
#X msg 142 92 1000 \$1;
#X obj 146 116 /;
#X obj 68 88 t a b;
#X msg 148 171 0;
#X msg 180 173 1;
#X obj 140 58 route stop;
#X connect 0 0 1 0;
#X connect 0 0 3 0;
#X connect 0 2 1 1;
#X connect 0 2 3 1;
#X connect 0 2 19 0;
#X connect 1 0 0 0;
#X connect 2 0 3 0;
#X connect 3 0 0 0;
#X connect 3 1 4 0;
#X connect 4 0 10 0;
#X connect 5 1 8 0;
#X connect 5 2 1 0;
#X connect 5 3 7 0;
#X connect 6 0 5 0;
#X connect 7 0 4 1;
#X connect 8 0 4 1;
#X connect 10 0 15 0;
#X connect 11 0 2 0;
#X connect 12 0 18 0;
#X connect 13 0 21 0;
#X connect 14 0 20 0;
#X connect 14 1 6 0;
#X connect 14 2 11 1;
#X connect 16 0 17 0;
#X connect 17 0 14 0;
#X connect 18 0 0 0;
#X connect 18 1 19 0;
#X connect 19 0 11 0;
#X connect 20 0 11 0;
#X connect 21 0 19 0;
#X connect 21 1 16 0;
